<?xml version="1.0" standalone="no"?>
<!DOCTYPE svg PUBLIC "-//W3C//DTD SVG 1.1//EN" "http://www.w3.org/Graphics/SVG/1.1/DTD/svg11.dtd">
<svg xmlns="http://www.w3.org/2000/svg" xmlns:xlink="http://www.w3.org/1999/xlink" xmlns:serif="http://www.serif.com/" width="6955" height="1150" viewBox="0 0 6955 1150" version="1.1" xml:space="preserve" style="fill-rule:evenodd;clip-rule:evenodd;stroke-linejoin:round;stroke-miterlimit:2;"><g><g><path d="M224.308,1064.05l-67.221,0l0,7.975c26.488,2.421 28.625,3.988 28.625,23.213l0,21.22c0,11.821 -3.133,14.813 -9.258,17.659c-6.121,3.133 -14.525,5.271 -24.637,5.271c-52.55,-0 -76.05,-44.863 -76.05,-83.459c-0,-49.841 30.337,-79.608 72.35,-79.608c25.204,-0 45.287,7.692 52.408,41.442l7.975,-1.28c-2.138,-17.516 -3.563,-32.758 -4.275,-42.3c-8.687,-2.42 -29.904,-8.258 -52.692,-8.258c-50.7,0 -101.258,29.908 -101.258,93.138c-0,52.837 39.167,90.72 97.554,90.72c21.504,0 43.438,-5.837 60.671,-10.112c-1.708,-7.692 -1.854,-16.379 -1.854,-25.35l-0,-23.213c-0,-15.666 1,-16.52 17.662,-19.083l0,-7.975Z" style="fill:#666;fill-rule:nonzero;"/><path d="M369.287,1101.65c-3.42,11.108 -8.687,20.367 -13.245,25.067c-5.838,6.833 -13.671,8.97 -34.038,8.97c-14.1,0 -23.358,0 -28.625,-3.416c-4.7,-3.421 -6.837,-9.542 -6.837,-22.217l-0,-49.987l26.633,-0c23.642,-0 24.921,1.137 28.625,20.362l8.687,0l0,-51.554l-8.687,-0c-3.133,17.946 -4.271,20.367 -28.625,20.367l-26.633,-0l-0,-60.813c-0,-7.687 0.429,-8.4 8.687,-8.4l23.071,0c19.229,0 26.063,1.85 29.337,7.688c3.705,5.983 5.984,11.537 8.405,23.216l8.687,-1.141c-0.996,-14.667 -1.996,-33.467 -2.279,-39.592l-120.054,-0l-0,8.262c21.358,1.85 23.783,2.563 23.783,26.063l0,106.808c0,22.075 -2.425,24.071 -27.204,25.921l0,8.258l130.025,0c2.421,-8.258 7.975,-34.604 9.258,-42.866l-8.971,-0.996Z" style="fill:#666;fill-rule:nonzero;"/><path d="M618.371,1145.51l-0,-8.4c-23.784,-1.85 -24.925,-3.275 -25.634,-33.183l-2.425,-94.137c-1.137,-29.338 1.001,-29.05 25.067,-31.33l0,-8.262l-45.429,-0l-63.804,136.721l-61.809,-136.721l-43.149,-0l-0,8.262c24.92,2.28 25.633,2.846 23.354,37.171l-3.7,56.109c-1.854,28.483 -3.704,39.879 -5.13,48.85c-1.991,12.25 -7.404,14.67 -22.929,16.237l0,8.683l63.663,0l-0,-8.683c-17.663,-1.567 -24.496,-3.421 -25.35,-16.237c-0.288,-9.971 -0,-20.792 1.279,-44.15l3.704,-77.9l0.571,-0l60.525,144.837l5.554,0l66.933,-148.825l0.571,0l1.284,109.375c-0,29.908 -0.571,31.333 -23.071,33.183l-0,8.4l69.925,0Z" style="fill:#666;fill-rule:nonzero;"/><path d="M765.342,1101.65c-3.417,11.108 -8.688,20.367 -13.242,25.067c-5.842,6.833 -13.675,8.97 -34.038,8.97c-14.1,0 -23.358,0 -28.625,-3.416c-4.699,-3.421 -6.837,-9.542 -6.837,-22.217l0,-49.987l26.629,-0c23.642,-0 24.925,1.137 28.629,20.362l8.688,0l-0,-51.554l-8.688,-0c-3.133,17.946 -4.275,20.367 -28.629,20.367l-26.629,-0l0,-60.813c0,-7.687 0.425,-8.4 8.687,-8.4l23.071,0c19.225,0 26.063,1.85 29.338,7.688c3.704,5.983 5.983,11.537 8.404,23.216l8.687,-1.141c-1,-14.667 -1.995,-33.467 -2.279,-39.592l-120.058,-0l-0,8.262c21.363,1.85 23.783,2.563 23.783,26.063l0,106.808c0,22.075 -2.42,24.071 -27.2,25.921l0,8.258l130.025,0c2.421,-8.258 7.975,-34.604 9.259,-42.866l-8.975,-0.996Z" style="fill:#666;fill-rule:nonzero;"/><path d="M861.758,1145.51l0,-8.4c-22.216,-1.425 -24.779,-2.42 -24.779,-25.779l0,-107.237c0,-22.788 2.563,-23.784 24.779,-25.634l0,-8.262l-70.07,-0l-0,8.262c22.504,1.85 24.924,2.846 24.924,25.634l0,107.237c0,23.071 -2.42,24.354 -24.924,25.779l-0,8.4l70.07,0Z" style="fill:#666;fill-rule:nonzero;"/><path d="M1067.55,970.196l-65.513,-0l0,8.262c18.513,0.713 25.063,4.13 26.917,16.375c0.854,7.121 1.567,19.23 1.567,45.146l-0,67.65l-0.713,0l-112.65,-137.433l-38.879,-0l0,8.262c12.959,1.28 19.225,3.134 24.779,9.684c4.842,6.691 5.413,6.691 5.413,26.487l-0,59.246c-0,24.354 -1.142,37.454 -1.854,46c-1.709,13.246 -8.542,16.663 -24.067,17.233l-0,8.4l64.942,0l-0,-8.4c-17.946,-1.141 -24.496,-3.987 -26.346,-17.804c-0.288,-7.975 -1.142,-21.075 -1.142,-45.429l0,-67.221l0.571,0l113.362,140.992l8.546,-0l0,-107.667c0,-25.916 0.571,-38.025 0.996,-46.283c1.567,-11.108 8.829,-14.525 24.071,-15.238l0,-8.262Z" style="fill:#666;fill-rule:nonzero;"/><path d="M1184.04,1009.79c-2.134,-17.659 -3.7,-27.913 -4.555,-37.455c-12.391,-4.27 -23.07,-6.408 -33.612,-6.408c-34.037,0 -54.4,21.933 -54.4,47.567c0,31.046 28.196,44.004 44.146,52.408c20.083,10.825 35.179,20.079 35.179,41.017c0,19.508 -11.962,32.471 -33.042,32.471c-27.487,-0 -38.45,-26.346 -42.866,-42.725l-8.546,1.708c1.854,14.1 5.129,35.462 7.408,41.583c2.421,1 6.409,3.421 12.529,5.271c6.267,1.85 15.242,4.558 26.634,4.558c34.891,0 58.675,-21.933 58.675,-51.129c-0,-31.187 -27.2,-43.291 -46.713,-52.833c-20.367,-10.542 -33.896,-20.083 -33.896,-40.446c0,-13.529 8.546,-29.625 30.192,-29.625c23.783,0 29.625,18.8 34.037,35.463l8.83,-1.425Z" style="fill:#666;fill-rule:nonzero;"/><path d="M1384,1145.51l-0,-8.4c-17.804,-1.708 -21.792,-3.987 -29.479,-26.491c-16.809,-45.713 -35.892,-99.688 -52.267,-144.692l-8.262,2.704l-55.259,140.421c-9.541,24.354 -13.241,25.638 -30.617,28.058l0,8.4l59.53,0l-0,-8.4c-20.367,-1.85 -23.071,-3.987 -16.946,-22.075c3.987,-11.108 7.404,-22.075 11.392,-33.041l59.245,-0l14.809,40.733c3.42,10.396 1.283,12.246 -16.946,14.383l-0,8.4l64.8,0Zm-66.65,-75.904l-50.559,0c8.4,-22.929 16.946,-46.854 25.634,-70.637l0.571,-0l24.354,70.637Z" style="fill:#666;fill-rule:nonzero;"/><path d="M1622.83,1145.51l-0,-8.4c-23.783,-1.85 -24.921,-3.275 -25.633,-33.183l-2.421,-94.137c-1.142,-29.338 0.996,-29.05 25.062,-31.33l0,-8.262l-45.429,-0l-63.8,136.721l-61.808,-136.721l-43.154,-0l-0,8.262c24.925,2.28 25.633,2.846 23.358,37.171l-3.704,56.109c-1.85,28.483 -3.704,39.879 -5.129,48.85c-1.992,12.25 -7.405,14.67 -22.929,16.237l-0,8.683l63.662,0l-0,-8.683c-17.658,-1.567 -24.496,-3.421 -25.35,-16.237c-0.288,-9.971 0,-20.792 1.279,-44.15l3.704,-77.9l0.571,-0l60.525,144.837l5.554,0l66.938,-148.825l0.567,0l1.283,109.375c-0,29.908 -0.571,31.333 -23.071,33.183l0,8.4l69.925,0Z" style="fill:#666;fill-rule:nonzero;"/><path d="M1769.8,1101.65c-3.417,11.108 -8.683,20.367 -13.242,25.067c-5.842,6.833 -13.671,8.97 -34.037,8.97c-14.1,0 -23.359,0 -28.625,-3.416c-4.7,-3.421 -6.838,-9.542 -6.838,-22.217l0,-49.987l26.634,-0c23.641,-0 24.92,1.137 28.624,20.362l8.688,0l0,-51.554l-8.688,-0c-3.133,17.946 -4.275,20.367 -28.624,20.367l-26.634,-0l0,-60.813c0,-7.687 0.429,-8.4 8.688,-8.4l23.07,0c19.225,0 26.063,1.85 29.338,7.688c3.704,5.983 5.983,11.537 8.404,23.216l8.688,-1.141c-1,-14.667 -1.996,-33.467 -2.28,-39.592l-120.058,-0l0,8.262c21.363,1.85 23.783,2.563 23.783,26.063l0,106.808c0,22.075 -2.42,24.071 -27.199,25.921l-0,8.258l130.025,0c2.42,-8.258 7.975,-34.604 9.258,-42.866l-8.975,-0.996Z" style="fill:#666;fill-rule:nonzero;"/><path d="M2103.33,970.196l-58.958,-0l-0,8.262c19.796,2.563 21.075,5.267 17.946,20.792c-4.417,19.367 -20.654,73.771 -31.475,109.8l-0.571,0c-16.663,-48.133 -32.188,-91.287 -46.996,-136.146l-7.975,0c-13.675,44.292 -29.337,88.579 -44.15,136.434l-0.571,-0c-12.104,-40.021 -22.929,-76.763 -33.466,-113.792c-3.705,-13.242 -3.559,-14.808 16.379,-17.088l-0,-8.262l-63.233,-0l-0,8.262c16.379,1.992 20.366,3.846 26.916,25.634c14.813,48.279 30.192,95.416 44.15,143.841l8.258,0c13.959,-44.15 28.767,-87.304 44.717,-136.291l0.571,-0c14.529,42.154 32.471,92.283 46.712,136.291l8.688,0c21.792,-75.195 38.454,-127.75 44.292,-143.841c7.833,-21.504 9.683,-23.071 28.766,-25.634l0,-8.262Z" style="fill:#666;fill-rule:nonzero;"/><path d="M2246.6,1101.65c-3.416,11.108 -8.687,20.367 -13.246,25.067c-5.837,6.833 -13.67,8.97 -34.037,8.97c-14.096,0 -23.354,0 -28.625,-3.416c-4.7,-3.421 -6.834,-9.542 -6.834,-22.217l0,-49.987l26.63,-0c23.641,-0 24.925,1.137 28.625,20.362l8.687,0l0,-51.554l-8.687,-0c-3.134,17.946 -4.271,20.367 -28.625,20.367l-26.63,-0l0,-60.813c0,-7.687 0.425,-8.4 8.688,-8.4l23.071,0c19.225,0 26.062,1.85 29.337,7.688c3.7,5.983 5.98,11.537 8.4,23.216l8.688,-1.141c-0.996,-14.667 -1.992,-33.467 -2.279,-39.592l-120.055,-0l0,8.262c21.363,1.85 23.784,2.563 23.784,26.063l-0,106.808c-0,22.075 -2.421,24.071 -27.2,25.921l-0,8.258l130.025,0c2.421,-8.258 7.975,-34.604 9.254,-42.866l-8.971,-0.996Z" style="fill:#666;fill-rule:nonzero;"/><path d="M2432.45,1139.95c-6.121,-1.279 -13.529,-4.696 -20.65,-12.675c-6.833,-7.404 -11.392,-12.958 -21.646,-27.2c-7.975,-11.962 -19.366,-29.908 -24.066,-38.879c20.362,-8.971 34.32,-23.642 34.32,-47.137c0,-15.809 -7.404,-28.059 -18.512,-35.18c-9.687,-6.266 -23.217,-8.687 -41.729,-8.687l-66.079,-0l-0,8.262c21.362,1.85 23.783,2.28 23.783,25.35l0,107.521c0,23.071 -2.421,24.354 -25.208,25.779l-0,8.4l69.925,0l-0,-8.4c-22.075,-1.425 -24.355,-2.991 -24.355,-25.779l0,-42.012l9.542,-0c14.954,-0 19.513,2.991 24.213,10.396c7.691,12.675 18.087,30.05 27.341,43.295c13.388,17.805 24.784,23.359 41.446,24.067c3.417,0.571 6.692,0.571 10.538,0.571l1.137,-7.692Zm-114.217,-79.891l0,-65.513c0,-7.404 0.713,-10.537 3.134,-12.392c2.137,-1.42 6.554,-2.42 14.529,-2.42c21.504,-0 41.583,9.97 41.583,38.879c0,14.812 -4.841,25.066 -15.379,33.325c-6.837,5.554 -15.383,8.121 -29.625,8.121l-14.242,-0Z" style="fill:#666;fill-rule:nonzero;"/><path d="M2580,1010.36c-1.421,-14.812 -2.704,-34.037 -2.704,-46.712l-6.267,-0c-3.987,4.983 -5.554,6.55 -12.675,6.55l-105.812,-0c-7.409,-0 -10.825,-0.567 -14.813,-6.55l-5.837,-0c-0.571,14.954 -2.138,32.187 -3.134,47.996l8.688,-0c3.133,-11.821 5.267,-19.229 8.258,-23.784c3.417,-5.983 8.971,-7.833 29.338,-7.833l18.941,0l0,131.875c0,21.504 -2.279,23.783 -27.487,25.208l-0,8.4l76.479,0l-0,-8.4c-26.204,-1.425 -28.342,-3.987 -28.342,-25.208l0,-131.875l20.367,0c20.363,0 24.067,1.85 28.338,8.117c3.133,4.271 5.27,10.679 7.833,23.5l8.829,-1.284Z" style="fill:#666;fill-rule:nonzero;"/><path d="M2725.98,1101.65c-3.421,11.108 -8.687,20.367 -13.246,25.067c-5.841,6.833 -13.671,8.97 -34.037,8.97c-14.1,0 -23.359,0 -28.625,-3.416c-4.7,-3.421 -6.838,-9.542 -6.838,-22.217l0,-49.987l26.634,-0c23.641,-0 24.92,1.137 28.625,20.362l8.687,0l0,-51.554l-8.687,-0c-3.134,17.946 -4.275,20.367 -28.625,20.367l-26.634,-0l0,-60.813c0,-7.687 0.429,-8.4 8.688,-8.4l23.071,0c19.225,0 26.062,1.85 29.337,7.688c3.704,5.983 5.984,11.537 8.404,23.216l8.688,-1.141c-0.996,-14.667 -1.996,-33.467 -2.279,-39.592l-120.059,-0l0,8.262c21.363,1.85 23.784,2.563 23.784,26.063l-0,106.808c-0,22.075 -2.421,24.071 -27.2,25.921l-0,8.258l130.025,0c2.42,-8.258 7.975,-34.604 9.258,-42.866l-8.971,-0.996Z" style="fill:#666;fill-rule:nonzero;"/><path d="M2883.06,1077.01l-62.379,0l-3.416,15.096l62.091,0l3.704,-15.096Z" style="fill:#666;fill-rule:nonzero;"/><path d="M3144.82,1064.05l-67.221,0l-0,7.975c26.492,2.421 28.625,3.988 28.625,23.213l-0,21.22c-0,11.821 -3.133,14.813 -9.254,17.659c-6.125,3.133 -14.529,5.271 -24.642,5.271c-52.55,-0 -76.046,-44.863 -76.046,-83.459c0,-49.841 30.334,-79.608 72.346,-79.608c25.209,-0 45.288,7.692 52.408,41.442l7.975,-1.28c-2.137,-17.516 -3.562,-32.758 -4.27,-42.3c-8.688,-2.42 -29.909,-8.258 -52.696,-8.258c-50.7,0 -101.259,29.908 -101.259,93.138c0,52.837 39.167,90.72 97.555,90.72c21.508,0 43.437,-5.837 60.67,-10.112c-1.708,-7.692 -1.849,-16.379 -1.849,-25.35l-0,-23.213c-0,-15.666 0.995,-16.52 17.658,-19.083l-0,-7.975Z" style="fill:#666;fill-rule:nonzero;"/><path d="M3289.8,1101.65c-3.421,11.108 -8.687,20.367 -13.246,25.067c-5.837,6.833 -13.671,8.97 -34.037,8.97c-14.1,0 -23.355,0 -28.625,-3.416c-4.7,-3.421 -6.838,-9.542 -6.838,-22.217l0,-49.987l26.633,-0c23.642,-0 24.921,1.137 28.625,20.362l8.688,0l0,-51.554l-8.688,-0c-3.133,17.946 -4.27,20.367 -28.625,20.367l-26.633,-0l0,-60.813c0,-7.687 0.429,-8.4 8.688,-8.4l23.07,0c19.23,0 26.063,1.85 29.338,7.688c3.704,5.983 5.983,11.537 8.404,23.216l8.688,-1.141c-0.996,-14.667 -1.992,-33.467 -2.28,-39.592l-120.054,-0l0,8.262c21.363,1.85 23.784,2.563 23.784,26.063l-0,106.808c-0,22.075 -2.421,24.071 -27.204,25.921l-0,8.258l130.025,0c2.42,-8.258 7.975,-34.604 9.258,-42.866l-8.971,-0.996Z" style="fill:#666;fill-rule:nonzero;"/><path d="M3415.41,1009.79c-2.138,-17.659 -3.705,-27.913 -4.559,-37.455c-12.387,-4.27 -23.071,-6.408 -33.608,-6.408c-34.038,0 -54.404,21.933 -54.404,47.567c-0,31.046 28.2,44.004 44.15,52.408c20.079,10.825 35.175,20.079 35.175,41.017c-0,19.508 -11.963,32.471 -33.038,32.471c-27.487,-0 -38.454,-26.346 -42.866,-42.725l-8.546,1.708c1.85,14.1 5.125,35.462 7.404,41.583c2.421,1 6.408,3.421 12.533,5.271c6.267,1.85 15.238,4.558 26.633,4.558c34.892,0 58.676,-21.933 58.676,-51.129c-0,-31.187 -27.205,-43.291 -46.713,-52.833c-20.367,-10.542 -33.896,-20.083 -33.896,-40.446c0,-13.529 8.546,-29.625 30.192,-29.625c23.783,0 29.621,18.8 34.037,35.463l8.83,-1.425Z" style="fill:#666;fill-rule:nonzero;"/><path d="M3569.36,1101.65c-3.417,11.108 -8.688,20.367 -13.242,25.067c-5.842,6.833 -13.675,8.97 -34.038,8.97c-14.1,0 -23.358,0 -28.629,-3.416c-4.696,-3.417 -6.833,-9.542 -6.833,-22.217l-0,-49.987l26.629,-0c23.642,-0 24.925,1.137 28.629,20.362l8.688,0l-0,-51.554l-8.688,-0c-3.133,17.946 -4.275,20.367 -28.629,20.367l-26.629,-0l-0,-60.813c-0,-7.687 0.425,-8.4 8.687,-8.4l23.071,0c19.225,0 26.063,1.85 29.338,7.688c3.704,5.983 5.979,11.537 8.404,23.216l8.683,-1.141c-0.996,-14.667 -1.992,-33.467 -2.275,-39.592l-120.058,-0l-0,8.262c21.362,1.85 23.783,2.563 23.783,26.063l0,106.808c0,22.075 -2.421,24.071 -27.2,25.921l0,8.263l130.025,-0c2.421,-8.263 7.975,-34.609 9.259,-42.871l-8.975,-0.996Z" style="fill:#666;fill-rule:nonzero;"/><path d="M3718.19,1101.93c-4.271,12.388 -8.972,20.505 -13.959,25.917c-6.12,6.554 -15.096,7.833 -29.904,7.833c-11.963,0 -21.504,-0.425 -26.775,-3.416c-4.983,-3.134 -6.55,-8.117 -6.55,-22.788l-0,-105.387c-0,-22.788 2.846,-24.067 24.779,-25.634l0,-8.262l-69.783,-0l-0,8.262c22.787,1.85 24.638,3.134 24.638,25.634l-0,107.237c-0,22.788 -2.421,24.354 -24.922,25.779l0,8.405l121.48,-0c2.279,-8.263 8.116,-34.184 9.683,-42.3l-8.687,-1.28Z" style="fill:#666;fill-rule:nonzero;"/><path d="M3864.45,1101.93c-4.275,12.388 -8.975,20.505 -13.959,25.917c-6.124,6.554 -15.095,7.833 -29.908,7.833c-11.962,0 -21.504,-0.425 -26.77,-3.416c-4.988,-3.134 -6.554,-8.117 -6.554,-22.788l-0,-105.387c-0,-22.788 2.849,-24.067 24.783,-25.634l-0,-8.262l-69.788,-0l0,8.262c22.788,1.85 24.642,3.134 24.642,25.634l-0,107.237c-0,22.788 -2.425,24.354 -24.925,25.779l-0,8.405l121.479,-0c2.279,-8.263 8.121,-34.184 9.688,-42.3l-8.688,-1.28Z" style="fill:#666;fill-rule:nonzero;"/><path d="M3987.5,1009.79c-2.138,-17.659 -3.704,-27.913 -4.559,-37.455c-12.387,-4.27 -23.071,-6.408 -33.608,-6.408c-34.038,0 -54.404,21.933 -54.404,47.567c0,31.046 28.2,44.008 44.15,52.408c20.079,10.825 35.175,20.083 35.175,41.017c-0,19.512 -11.962,32.471 -33.037,32.471c-27.488,-0 -38.455,-26.346 -42.872,-42.725l-8.541,1.708c1.85,14.1 5.125,35.462 7.404,41.587c2.421,0.996 6.408,3.417 12.533,5.267c6.267,1.854 15.238,4.558 26.629,4.558c34.892,0 58.676,-21.933 58.676,-51.125c-0,-31.191 -27.2,-43.295 -46.709,-52.837c-20.367,-10.538 -33.896,-20.079 -33.896,-40.446c0,-13.529 8.546,-29.625 30.192,-29.625c23.783,0 29.621,18.8 34.038,35.463l8.829,-1.425Z" style="fill:#666;fill-rule:nonzero;"/><path d="M4169.65,1097.66c-13.958,28.059 -27.488,41.73 -54.688,41.73c-40.733,-0 -71.35,-34.038 -71.35,-84.596c0,-40.729 24.209,-78.471 69.784,-78.471c30.617,-0 45.145,12.675 51.837,40.162l8.688,-2.42c-1.567,-14.242 -3.417,-25.067 -5.271,-40.734c-7.688,-1.566 -25.633,-7.404 -47.421,-7.404c-59.246,0 -103.108,37.6 -103.108,94.708c-0,42.296 29.337,89.15 94.704,89.15c20.366,0 42.295,-5.554 50.271,-7.404c4.417,-8.546 11.537,-28.625 15.1,-41.871l-8.546,-2.85Z" style="fill:#666;fill-rule:nonzero;"/><path d="M4380.42,970.2l-69.071,0l0,8.258c21.504,1.85 23.496,3.134 23.496,25.067l-0,43.15l-94.279,0l-0,-43.15c-0,-21.933 2.279,-23.217 23.216,-25.067l0,-8.258l-69.075,0l0,8.258c22.788,1.85 25.208,2.85 25.208,25.067l0,108.946c0,22.217 -2.42,22.929 -24.637,24.637l0,8.405l70.067,-0l-0,-8.405c-22.5,-1.708 -24.779,-2.991 -24.779,-24.637l-0,-53.404l94.279,-0l-0,53.404c-0,21.933 -2.28,22.929 -25.775,24.637l-0,8.405l71.35,-0l0,-8.405c-22.217,-1.708 -24.925,-2.42 -24.925,-24.637l-0,-108.946c-0,-22.217 2.708,-23.217 24.925,-25.067l0,-8.258Z" style="fill:#666;fill-rule:nonzero;"/><path d="M4562.43,1145.51l-0,-8.405c-17.8,-1.708 -21.788,-3.987 -29.479,-26.487c-16.804,-45.717 -35.888,-99.692 -52.267,-144.696l-8.258,2.708l-55.258,140.421c-9.542,24.354 -13.246,25.634 -30.621,28.054l-0,8.405l59.533,-0l0,-8.405c-20.367,-1.85 -23.075,-3.987 -16.95,-22.075c3.988,-11.108 7.404,-22.07 11.396,-33.037l59.242,-0l14.812,40.729c3.417,10.396 1.283,12.25 -16.946,14.383l-0,8.405l64.796,-0Zm-66.65,-75.909l-50.559,0c8.405,-22.929 16.95,-46.854 25.638,-70.637l0.571,-0l24.35,70.637Z" style="fill:#666;fill-rule:nonzero;"/><path d="M4700.71,1010.36c-0.996,-12.958 -2.421,-29.337 -2.563,-40.158l-118.204,0l0,8.258c21.075,1.85 23.495,2.85 23.495,25.634l0,107.241c0,22.784 -2.42,24.35 -24.354,25.775l0,8.405l72.776,-0l-0,-8.405c-25.492,-1.708 -28.055,-2.991 -28.055,-25.775l0,-48.566l28.767,-0c24.071,-0 25.208,2.566 28.913,21.65l8.4,-0l-0,-52.409l-8.4,0c-3.705,17.8 -4.842,19.938 -28.913,19.938l-28.767,-0l0,-63.804c0,-7.404 0.713,-8.117 8.688,-8.117l23.071,0c19.795,0 25.349,1.85 29.337,9.258c3.704,5.838 4.7,10.538 7.404,21.93l8.405,-0.855Z" style="fill:#666;fill-rule:nonzero;"/><path d="M4870.47,1010.36c-1.425,-14.808 -2.705,-34.037 -2.705,-46.712l-6.266,-0c-3.987,4.987 -5.554,6.554 -12.675,6.554l-105.816,0c-7.405,0 -10.821,-0.571 -14.809,-6.554l-5.842,-0c-0.566,14.954 -2.133,32.187 -3.133,47.996l8.688,-0c3.133,-11.821 5.27,-19.225 8.262,-23.784c3.417,-5.983 8.971,-7.833 29.338,-7.833l18.941,0l-0,131.875c-0,21.508 -2.279,23.783 -27.487,25.208l-0,8.405l76.475,-0l-0,-8.405c-26.205,-1.425 -28.338,-3.987 -28.338,-25.208l0,-131.875l20.363,0c20.366,0 24.07,1.85 28.341,8.117c3.134,4.275 5.271,10.683 7.834,23.5l8.829,-1.284Z" style="fill:#666;fill-rule:nonzero;"/><path d="M5010.89,1101.93c-4.271,12.388 -8.971,20.509 -13.954,25.921c-6.126,6.55 -15.096,7.829 -29.909,7.829c-11.962,0 -21.504,-0.425 -26.775,-3.416c-4.983,-3.134 -6.55,-8.117 -6.55,-22.788l0,-105.387c0,-22.784 2.85,-24.067 24.78,-25.634l-0,-8.258l-69.784,0l-0,8.258c22.787,1.85 24.637,3.134 24.637,25.634l0,107.241c0,22.784 -2.42,24.35 -24.92,25.775l-0,8.405l121.479,-0c2.279,-8.263 8.117,-34.18 9.683,-42.3l-8.687,-1.28Z" style="fill:#666;fill-rule:nonzero;"/><path d="M5104.75,1145.51l-0,-8.405c-22.217,-1.425 -24.779,-2.42 -24.779,-25.775l-0,-107.241c-0,-22.784 2.562,-23.784 24.779,-25.634l-0,-8.258l-70.067,0l0,8.258c22.5,1.85 24.921,2.85 24.921,25.634l-0,107.241c-0,23.071 -2.421,24.35 -24.921,25.775l0,8.405l70.067,-0Z" style="fill:#666;fill-rule:nonzero;"/><path d="M5276.78,1097.66c-13.954,28.059 -27.487,41.73 -54.687,41.73c-40.729,-0 -71.35,-34.038 -71.35,-84.596c-0,-40.729 24.212,-78.471 69.783,-78.471c30.621,-0 45.146,12.675 51.842,40.162l8.687,-2.42c-1.566,-14.242 -3.421,-25.067 -5.271,-40.73c-7.691,-1.566 -25.633,-7.408 -47.424,-7.408c-59.246,0 -103.109,37.6 -103.109,94.708c-0,42.296 29.337,89.15 94.704,89.15c20.367,0 42.301,-5.554 50.275,-7.404c4.413,-8.546 11.534,-28.625 15.096,-41.871l-8.546,-2.85Z" style="fill:#666;fill-rule:nonzero;"/><path d="M5487.56,970.2l-69.07,0l-0,8.258c21.504,1.85 23.5,3.134 23.5,25.067l-0,43.15l-94.28,0l0,-43.15c0,-21.933 2.275,-23.217 23.213,-25.067l-0,-8.258l-69.071,0l0,8.258c22.783,1.85 25.209,2.85 25.209,25.067l-0,108.946c-0,22.217 -2.426,22.929 -24.642,24.637l-0,8.405l70.071,-0l-0,-8.405c-22.505,-1.708 -24.78,-2.991 -24.78,-24.637l0,-53.404l94.28,-0l-0,53.404c-0,21.933 -2.28,22.929 -25.779,24.637l-0,8.405l71.349,-0l0,-8.405c-22.216,-1.708 -24.921,-2.42 -24.921,-24.637l0,-108.946c0,-22.217 2.705,-23.217 24.921,-25.067l0,-8.258Z" style="fill:#666;fill-rule:nonzero;"/><path d="M5636.67,1101.65c-3.416,11.112 -8.687,20.367 -13.241,25.067c-5.842,6.837 -13.675,8.97 -34.037,8.97c-14.1,0 -23.359,0 -28.63,-3.416c-4.696,-3.417 -6.833,-9.542 -6.833,-22.217l0,-49.987l26.629,-0c23.642,-0 24.925,1.137 28.629,20.366l8.688,0l-0,-51.554l-8.688,0c-3.133,17.942 -4.275,20.363 -28.629,20.363l-26.629,-0l0,-60.809c0,-7.691 0.425,-8.404 8.688,-8.404l23.07,0c19.225,0 26.063,1.85 29.338,7.692c3.704,5.979 5.979,11.533 8.404,23.212l8.687,-1.137c-1,-14.671 -1.996,-33.471 -2.279,-39.592l-120.058,0l-0,8.258c21.363,1.85 23.783,2.563 23.783,26.063l0,106.812c0,22.075 -2.42,24.067 -27.2,25.917l0,8.263l130.025,-0c2.421,-8.263 7.975,-34.609 9.259,-42.867l-8.976,-1Z" style="fill:#666;fill-rule:nonzero;"/><path d="M5897.43,970.2l-61.525,0l0,8.258c22.217,2.563 24.067,4.13 18.942,19.225c-7.55,24.355 -29.766,80.892 -43.867,115.5l-0.283,0c-19.512,-49.845 -38.879,-101.258 -45.429,-119.77c-4.275,-11.25 -3.421,-12.959 15.808,-14.955l0,-8.258l-63.946,0l0,8.258c16.092,1.85 20.65,3.417 28.342,22.359c14.954,38.879 37.737,98.125 55.683,147.116l7.976,0c20.079,-55.258 49.416,-124.9 56.112,-141.275c10.254,-24.07 13.387,-25.92 32.187,-28.2l0,-8.258Z" style="fill:#666;fill-rule:nonzero;"/><path d="M5983.17,1145.51l-0,-8.405c-22.217,-1.425 -24.784,-2.42 -24.784,-25.775l0,-107.241c0,-22.784 2.567,-23.784 24.784,-25.634l-0,-8.258l-70.071,0l-0,8.258c22.504,1.85 24.925,2.85 24.925,25.634l-0,107.241c-0,23.071 -2.421,24.35 -24.925,25.775l-0,8.405l70.071,-0Z" style="fill:#666;fill-rule:nonzero;"/><path d="M6132.42,1101.65c-3.416,11.112 -8.687,20.367 -13.245,25.067c-5.838,6.837 -13.671,8.97 -34.038,8.97c-14.096,0 -23.354,0 -28.624,-3.416c-4.701,-3.417 -6.834,-9.542 -6.834,-22.217l0,-49.987l26.629,-0c23.642,-0 24.925,1.137 28.625,20.366l8.688,0l-0,-51.554l-8.688,0c-3.129,17.942 -4.271,20.363 -28.625,20.363l-26.629,-0l0,-60.809c0,-7.691 0.425,-8.404 8.687,-8.404l23.071,0c19.225,0 26.063,1.85 29.338,7.692c3.7,5.979 5.979,11.533 8.4,23.212l8.687,-1.137c-0.995,-14.671 -1.991,-33.471 -2.274,-39.592l-120.059,0l-0,8.258c21.363,1.85 23.783,2.563 23.783,26.063l0,106.812c0,22.075 -2.42,24.067 -27.2,25.917l0,8.263l130.025,-0c2.421,-8.263 7.975,-34.609 9.255,-42.867l-8.972,-1Z" style="fill:#666;fill-rule:nonzero;"/><path d="M6281.24,1101.93c-4.27,12.388 -8.97,20.509 -13.958,25.921c-6.121,6.55 -15.095,7.829 -29.904,7.829c-11.962,0 -21.504,-0.425 -26.775,-3.416c-4.983,-3.134 -6.55,-8.117 -6.55,-22.788l0,-105.387c0,-22.784 2.846,-24.067 24.779,-25.634l0,-8.258l-69.783,0l0,8.258c22.788,1.85 24.637,3.134 24.637,25.634l0,107.241c0,22.784 -2.421,24.35 -24.925,25.775l0,8.405l121.484,-0c2.279,-8.263 8.116,-34.18 9.683,-42.3l-8.688,-1.28Z" style="fill:#666;fill-rule:nonzero;"/><path d="M6427.22,1010.36c-0.996,-12.958 -2.421,-29.337 -2.563,-40.158l-118.204,0l0,8.258c21.075,1.85 23.5,2.85 23.5,25.634l0,107.241c0,22.784 -2.425,24.35 -24.354,25.775l0,8.405l72.775,-0l-0,-8.405c-25.496,-1.708 -28.059,-2.991 -28.059,-25.775l0,-48.566l28.771,-0c24.067,-0 25.204,2.566 28.909,21.65l8.404,-0l-0,-52.409l-8.404,0c-3.705,17.8 -4.842,19.938 -28.909,19.938l-28.771,-0l0,-63.804c0,-7.404 0.713,-8.117 8.688,-8.117l23.071,0c19.796,0 25.35,1.85 29.337,9.258c3.704,5.838 4.7,10.538 7.409,21.93l8.4,-0.855Z" style="fill:#666;fill-rule:nonzero;"/><path d="M6598.12,1145.51l-0,-8.405c-17.804,-1.708 -21.792,-3.987 -29.479,-26.487c-16.805,-45.717 -35.892,-99.692 -52.267,-144.696l-8.263,2.708l-55.254,140.421c-9.541,24.354 -13.246,25.634 -30.621,28.054l0,8.405l59.529,-0l0,-8.405c-20.366,-1.85 -23.07,-3.987 -16.946,-22.075c3.988,-11.108 7.405,-22.07 11.392,-33.037l59.246,-0l14.813,40.729c3.416,10.396 1.279,12.25 -16.95,14.383l-0,8.405l64.8,-0Zm-66.65,-75.909l-50.559,0c8.404,-22.929 16.946,-46.854 25.634,-70.637l0.57,-0l24.355,70.637Z" style="fill:#666;fill-rule:nonzero;"/><path d="M6736.69,1101.93c-4.275,12.388 -8.97,20.509 -13.958,25.921c-6.121,6.55 -15.096,7.829 -29.904,7.829c-11.967,0 -21.508,-0.425 -26.775,-3.416c-4.988,-3.134 -6.554,-8.117 -6.554,-22.788l-0,-105.387c-0,-22.784 2.85,-24.067 24.783,-25.634l-0,-8.258l-69.783,0l-0,8.258c22.783,1.85 24.637,3.134 24.637,25.634l0,107.241c0,22.784 -2.421,24.35 -24.925,25.775l0,8.405l121.483,-0c2.276,-8.263 8.117,-34.18 9.684,-42.3l-8.688,-1.28Z" style="fill:#666;fill-rule:nonzero;"/><path d="M6891.92,1010.36c-1.425,-14.808 -2.708,-34.037 -2.708,-46.712l-6.267,-0c-3.988,4.987 -5.554,6.554 -12.675,6.554l-105.813,0c-7.404,0 -10.825,-0.571 -14.812,-6.554l-5.838,-0c-0.571,14.954 -2.137,32.187 -3.133,47.996l8.687,-0c3.134,-11.821 5.271,-19.225 8.259,-23.784c3.421,-5.983 8.975,-7.833 29.337,-7.833l18.942,0l0,131.875c0,21.508 -2.279,23.783 -27.483,25.208l-0,8.405l76.475,-0l-0,-8.405c-26.204,-1.425 -28.342,-3.987 -28.342,-25.208l-0,-131.875l20.367,0c20.366,0 24.067,1.85 28.342,8.117c3.133,4.275 5.266,10.683 7.833,23.5l8.829,-1.284Z" style="fill:#666;fill-rule:nonzero;"/></g><g><path d="M3252.77,19.021l-0,39.166c76.65,5.592 85.6,12.309 85.6,100.709l-0,406.746c-0,88.4 -10.071,93.996 -95.113,100.708l0,39.162l255.688,0c129.8,0 234.983,-27.412 310.517,-88.395c80.566,-60.425 128.678,-153.3 128.678,-281.984c0,-99.587 -38.041,-176.237 -88.395,-225.475c-67.7,-65.458 -166.171,-90.637 -298.209,-90.637l-298.766,-0Zm204.77,114.696c0,-33.009 2.8,-48.117 11.75,-57.067c8.951,-7.275 30.771,-13.987 71.055,-13.987c67.7,-0 124.766,17.341 168.408,55.95c62.104,45.875 95.113,132.037 95.113,233.866c-0,182.392 -92.876,306.038 -250.092,306.038c-73.292,-0 -96.234,-24.059 -96.234,-98.471l0,-426.329Z" style="fill:#0f5690;fill-rule:nonzero;"/><path d="M4236.15,705.512l0,-39.162c-80.008,-6.712 -89.52,-12.308 -89.52,-100.708l-0,-406.746c-0,-88.4 9.512,-95.117 89.52,-100.709l0,-39.166l-297.65,-0l0,39.166c80.009,5.592 90.638,12.309 90.638,100.709l-0,406.746c-0,87.279 -10.629,93.996 -90.638,100.708l0,39.162l297.65,0Z" style="fill:#0f5690;fill-rule:nonzero;"/><path d="M4948.94,705.517l-0,-39.167c-68.817,-7.833 -82.805,-17.904 -114.696,-108.542c-66.579,-177.916 -134.275,-375.975 -198.059,-554.45l-49.233,12.309l-210.929,544.379c-34.687,89.521 -48.117,97.354 -116.933,106.304l-0,39.167l234.987,-0l0,-39.167c-75.533,-8.95 -80.567,-20.142 -63.225,-76.65c11.75,-42.521 25.179,-80.008 38.046,-113.575l208.129,0c17.346,46.996 33.571,95.113 45.879,128.683c13.988,43.638 7.276,52.592 -54.829,61.542l0,39.167l280.863,-0Zm-289.817,-285.342l-173.442,0c29.096,-80.008 57.63,-162.813 87.284,-245.054l3.354,-0l82.804,245.054Z" style="fill:#0f5690;fill-rule:nonzero;"/><path d="M5494.45,520.883c-17.346,50.355 -36.929,83.925 -54.834,105.742c-24.054,27.417 -60.983,33.013 -107.979,33.013c-36.366,-0 -67.7,-2.238 -85.6,-11.192c-21.821,-9.513 -26.858,-30.213 -26.858,-81.683l-0,-407.867c-0,-88.4 9.513,-95.117 91.759,-100.709l-0,-39.166l-301.005,-0l0,39.166c81.125,5.592 91.754,12.309 91.754,100.709l0,406.746c0,87.279 -10.629,93.996 -97.912,100.708l-0,39.162l492.912,0c8.95,-29.649 30.771,-134.274 38.046,-175.116l-40.283,-9.513Z" style="fill:#0f5690;fill-rule:nonzero;"/><path d="M5882.06,4.475c-226.033,0 -351.916,176.238 -351.916,360.871c-0,204.771 144.345,355.275 340.167,355.275c191.345,-0 347.445,-136.517 347.445,-365.904c0,-212.046 -153.862,-350.242 -334.575,-350.242l-1.121,0Zm-19.579,44.2c122.525,0 216.521,121.967 216.521,335.133c-0,194.705 -86.162,290.934 -189.108,290.934c-135.396,-0 -222.117,-147.704 -222.117,-333.455c0,-183.512 87.842,-292.612 193.583,-292.612l1.121,0Z" style="fill:#0f5690;fill-rule:nonzero;"/><path d="M6954.56,377.654l-292.055,0l0,39.163c105.188,8.954 111.342,16.225 111.342,88.4l0,93.996c0,36.366 -9.513,51.47 -26.858,61.541c-16.784,9.513 -41.963,15.109 -68.259,15.109c-177.917,-0 -259.041,-165.05 -259.041,-323.384c-0,-191.346 110.779,-304.925 246.175,-304.925c90.637,0 165.049,39.167 192.462,163.934l40.284,-7.834c-6.713,-77.771 -12.867,-134.279 -16.226,-170.646c-36.366,-9.512 -114.691,-29.65 -198.058,-29.65c-210.925,0 -402.271,122.525 -402.271,366.463c0,208.692 148.825,350.8 383.809,350.8c83.925,-0 169.525,-21.821 233.866,-36.925c-5.595,-29.654 -6.712,-64.342 -6.712,-100.708l-0,-86.163c-0,-66.579 5.592,-69.937 61.542,-80.008l-0,-39.163Z" style="fill:#0f5690;fill-rule:nonzero;"/></g><g><path d="M477.804,174.558c-3.916,-50.912 -9.512,-115.254 -10.071,-157.775l-464.375,0l0,32.45c82.805,7.275 92.317,11.192 92.317,100.709l-0,421.296c-0,89.516 -9.512,95.67 -95.675,101.266l0,33.008l285.9,0l-0,-33.008c-100.15,-6.712 -110.221,-11.75 -110.221,-101.266l0,-190.788l113.017,0c94.554,0 99.029,10.071 113.579,85.046l33.008,-0l0,-205.896l-33.008,0c-14.55,69.938 -19.025,78.329 -113.579,78.329l-113.017,0l0,-250.65c0,-29.092 2.8,-31.892 34.129,-31.892l90.638,0c77.771,0 99.587,7.276 115.254,36.367c14.546,22.942 18.463,41.404 29.096,86.163l33.008,-3.359Z" style="fill:#4d4845;fill-rule:nonzero;"/><path d="M821.792,0c-218.2,0 -353.596,176.796 -353.596,369.821c-0,205.892 156.096,352.479 339.608,352.479c193.584,0 353.596,-139.312 353.596,-369.821c-0,-214.287 -164.487,-352.479 -339.05,-352.479l-0.558,0Zm-24.059,41.963c139.313,-0 262.959,114.133 262.959,338.487c-0,204.775 -109.1,299.888 -228.829,299.888c-149.384,-0 -263.521,-142.109 -263.521,-341.288c-0,-201.975 113.016,-297.087 228.27,-297.087l1.121,-0Z" style="fill:#4d4845;fill-rule:nonzero;"/><path d="M1724.75,683.696c-24.058,-5.038 -53.154,-18.463 -81.129,-49.796c-26.854,-29.092 -44.758,-50.912 -85.042,-106.862c-31.329,-46.996 -76.087,-117.492 -94.554,-152.742c80.009,-35.246 134.838,-92.875 134.838,-185.188c-0,-62.104 -29.092,-110.22 -72.734,-138.195c-38.045,-24.617 -91.195,-34.13 -163.929,-34.13l-259.604,0l-0,32.45c83.925,7.275 93.438,8.954 93.438,99.592l-0,422.413c-0,90.637 -9.513,95.67 -99.034,101.266l0,33.008l274.713,0l-0,-33.008c-86.721,-5.596 -95.675,-11.75 -95.675,-101.266l-0,-165.05l37.487,-0c58.746,-0 76.65,11.75 95.113,40.841c30.212,49.796 71.054,118.054 107.421,170.088c52.591,69.933 97.35,91.754 162.812,94.554c13.429,2.237 26.296,2.237 41.4,2.237l4.479,-30.212Zm-448.712,-313.875l-0,-257.363c-0,-29.095 2.8,-41.404 12.308,-48.679c8.392,-5.592 25.737,-9.508 57.071,-9.508c84.479,-0 163.371,39.162 163.371,152.737c-0,58.188 -19.025,98.471 -60.425,130.921c-26.859,21.821 -60.425,31.892 -116.375,31.892l-55.95,-0Z" style="fill:#4d4845;fill-rule:nonzero;"/><path d="M2340.09,16.783l-259.605,0l0,32.45c76.65,6.154 99.592,16.225 105.746,57.071c3.917,33.008 7.271,78.888 7.271,180.713l0,69.375c0,185.754 -54.271,305.483 -202.533,305.483c-124.767,0 -202.533,-85.042 -202.533,-270.233l-0,-240.021c-0,-91.196 8.391,-96.234 93.433,-102.388l-0,-32.45l-270.234,0l0,32.45c86.163,7.834 94.555,12.309 94.555,102.388l-0,264.079c-0,126.446 32.45,205.892 93.433,254.567c48.117,36.366 107.983,50.912 167.287,50.912c68.817,0 141.55,-21.821 191.346,-73.85c60.984,-63.225 81.684,-154.979 81.684,-284.779l-0,-73.854c-0,-103.504 2.237,-150.504 5.595,-180.717c2.8,-42.521 30.213,-53.708 94.555,-58.746l-0,-32.45Z" style="fill:#4d4845;fill-rule:nonzero;"/><path d="M3216.24,705.512l-0,-33.008c-93.438,-7.271 -97.913,-12.866 -100.709,-130.358l-9.512,-369.825c-4.475,-115.254 3.916,-114.134 98.471,-123.088l-0,-32.45l-178.479,0l-250.65,537.109l-242.817,-537.109l-169.525,0l-0,32.45c97.908,8.954 100.708,11.192 91.754,146.03l-14.546,220.437c-7.271,111.896 -14.546,156.654 -20.141,191.904c-7.834,48.117 -29.092,57.629 -90.076,63.783l0,34.125l250.088,0l-0,-34.125c-69.375,-6.154 -96.229,-13.429 -99.588,-63.783c-1.116,-39.162 0,-81.687 5.038,-173.441l14.546,-306.042l2.237,-0l237.784,569l21.821,-0l262.958,-584.663l2.237,0l5.034,429.688c-0,117.492 -2.238,123.087 -90.634,130.358l0,33.008l274.709,0Z" style="fill:#4d4845;fill-rule:nonzero;"/></g></g></svg>